<svg version="1.1" id="Layer_1" xmlns="http://www.w3.org/2000/svg" xmlns:xlink="http://www.w3.org/1999/xlink" x="0px" y="0px"
	 width="100%" viewBox="0 0 373 372" enable-background="new 0 0 373 372" xml:space="preserve">
<path fill="#FFFEFE" opacity="1.000000" stroke="none" 
	d="
M180.000000,0.999999 
	C195.687561,1.000000 211.375122,1.000000 227.564392,1.377342 
	C228.036072,1.918786 228.033295,2.093875 227.972153,2.245431 
	C192.149628,91.052910 156.333755,179.863068 120.430908,268.638062 
	C119.601654,270.688538 118.081932,272.680420 116.395210,274.130951 
	C80.025528,305.407837 43.585342,336.602753 7.162883,367.818298 
	C5.842493,368.949890 4.563768,370.130096 2.900438,371.613281 
	C4.004877,371.825317 4.445606,371.983704 4.886420,371.983948 
	C25.375385,371.994904 45.865231,372.074707 66.351906,371.857147 
	C68.300598,371.836456 70.677208,370.369263 72.103065,368.862091 
	C133.579956,303.879639 194.962570,238.807999 256.399719,173.787903 
	C259.586853,170.414902 262.928253,167.112595 266.578186,164.264938 
	C282.324249,151.980011 298.189972,139.847992 314.053986,127.714973 
	C334.014648,112.448753 354.016113,97.235878 374.000000,82.000000 
	C374.000000,98.020897 374.000000,114.041786 373.736877,130.737488 
	C336.909363,183.865707 300.361145,236.330429 263.724731,288.733490 
	C262.164368,290.965393 260.086151,293.156952 257.746460,294.474731 
	C212.365280,320.034912 166.906769,345.457794 121.490654,370.956116 
	C120.822044,371.331543 120.489426,372.305420 120.000000,373.000000 
	C80.435669,373.000000 40.871342,373.000000 1.000000,373.000000 
	C1.000000,356.313690 1.000000,339.625519 1.358174,322.428833 
	C2.568466,320.789276 3.652830,319.766754 4.239322,318.511597 
	C31.146435,260.927307 58.214046,203.416595 84.780853,145.675476 
	C95.795578,121.735733 107.614098,98.533813 123.953850,77.551674 
	C143.376266,52.611004 161.380966,26.566301 180.000000,0.999999 
z"/>
<path fill="#D41F6B" opacity="1.000000" stroke="none" 
	d="
M374.000000,81.531342 
	C354.016113,97.235878 334.014648,112.448753 314.053986,127.714973 
	C298.189972,139.847992 282.324249,151.980011 266.578186,164.264938 
	C262.928253,167.112595 259.586853,170.414902 256.399719,173.787903 
	C194.962570,238.807999 133.579956,303.879639 72.103065,368.862091 
	C70.677208,370.369263 68.300598,371.836456 66.351906,371.857147 
	C45.865231,372.074707 25.375385,371.994904 4.886420,371.983948 
	C4.445606,371.983704 4.004877,371.825317 2.900438,371.613281 
	C4.563768,370.130096 5.842493,368.949890 7.162883,367.818298 
	C43.585342,336.602753 80.025528,305.407837 116.395210,274.130951 
	C118.081932,272.680420 119.601654,270.688538 120.430908,268.638062 
	C156.333755,179.863068 192.149628,91.052910 227.972153,2.245431 
	C228.033295,2.093875 228.036072,1.918786 228.033051,1.377342 
	C276.572693,1.000000 325.145416,1.000000 374.000000,1.000000 
	C374.000000,27.686899 374.000000,54.374790 374.000000,81.531342 
z"/>
<path fill="#EE8346" opacity="1.000000" stroke="none" 
	d="
M179.571533,0.999999 
	C161.380966,26.566301 143.376266,52.611004 123.953850,77.551674 
	C107.614098,98.533813 95.795578,121.735733 84.780853,145.675476 
	C58.214046,203.416595 31.146435,260.927307 4.239322,318.511597 
	C3.652830,319.766754 2.568466,320.789276 1.358174,321.960144 
	C1.000000,320.611115 1.000000,319.222198 1.357162,317.186157 
	C3.051626,289.459778 4.453797,262.383514 5.711582,235.300537 
	C7.787911,190.592514 10.548836,145.895477 11.430553,101.162445 
	C11.811075,81.857079 8.292376,62.466892 6.416634,43.127686 
	C5.053596,29.074535 3.479817,15.041824 2.000000,1.000000 
	C3.714359,1.000000 5.428717,1.000000 7.776757,1.349358 
	C25.725317,3.718746 43.029533,5.836906 60.359337,7.719547 
	C69.752724,8.740007 79.263084,10.517727 88.592300,9.926856 
	C110.461853,8.541740 132.260971,6.003531 154.073441,3.783186 
	C160.740982,3.104482 167.359192,1.941307 174.000000,1.000000 
	C175.714355,1.000000 177.428711,1.000000 179.571533,0.999999 
z"/>
<path fill="#0BACB8" opacity="1.000000" stroke="none" 
	d="
M120.437500,373.000000 
	C120.489426,372.305420 120.822044,371.331543 121.490654,370.956116 
	C166.906769,345.457794 212.365280,320.034912 257.746460,294.474731 
	C260.086151,293.156952 262.164368,290.965393 263.724731,288.733490 
	C300.361145,236.330429 336.909363,183.865707 373.736877,131.206146 
	C374.000000,135.356903 374.000000,139.713806 373.634216,144.749146 
	C372.512451,155.531601 371.716217,165.632812 371.008636,175.740250 
	C369.464691,197.795441 367.894501,219.849213 366.474091,241.912521 
	C365.555878,256.175049 363.592957,270.527435 364.406036,284.707214 
	C365.602814,305.578003 368.800903,326.337494 371.274506,347.129211 
	C371.946869,352.780884 373.078888,358.377899 374.000000,364.000000 
	C374.000000,366.666656 374.077972,369.338257 373.911072,371.994415 
	C373.887573,372.368164 372.666656,372.666687 371.315460,372.641602 
	C351.302582,370.224579 331.990723,367.990570 312.640106,366.168457 
	C299.591522,364.939758 286.499481,363.929199 273.405090,363.521759 
	C265.629181,363.279785 257.813507,364.440918 250.011353,364.896667 
	C210.161697,367.224579 170.310120,369.519989 130.462387,371.880310 
	C129.290253,371.949738 128.153336,372.613403 127.000000,373.000000 
	C124.958336,373.000000 122.916664,373.000000 120.437500,373.000000 
z"/>
<path fill="#FFFCFB" opacity="1.000000" stroke="none" 
	d="
M1.500000,1.000000 
	C3.479817,15.041824 5.053596,29.074535 6.416634,43.127686 
	C8.292376,62.466892 11.811075,81.857079 11.430553,101.162445 
	C10.548836,145.895477 7.787911,190.592514 5.711582,235.300537 
	C4.453797,262.383514 3.051626,289.459778 1.357162,316.769531 
	C1.000000,211.666672 1.000000,106.333336 1.500000,1.000000 
z"/>
<path fill="#F9FDFD" opacity="1.000000" stroke="none" 
	d="
M127.468658,373.000000 
	C128.153336,372.613403 129.290253,371.949738 130.462387,371.880310 
	C170.310120,369.519989 210.161697,367.224579 250.011353,364.896667 
	C257.813507,364.440918 265.629181,363.279785 273.405090,363.521759 
	C286.499481,363.929199 299.591522,364.939758 312.640106,366.168457 
	C331.990723,367.990570 351.302582,370.224579 370.815460,372.641602 
	C289.979095,373.000000 208.958206,373.000000 127.468658,373.000000 
z"/>
<path fill="#FAFDFE" opacity="1.000000" stroke="none" 
	d="
M374.000000,363.531342 
	C373.078888,358.377899 371.946869,352.780884 371.274506,347.129211 
	C368.800903,326.337494 365.602814,305.578003 364.406036,284.707214 
	C363.592957,270.527435 365.555878,256.175049 366.474091,241.912521 
	C367.894501,219.849213 369.464691,197.795441 371.008636,175.740250 
	C371.716217,165.632812 372.512451,155.531601 373.634216,145.213776 
	C374.000000,217.687561 374.000000,290.375122 374.000000,363.531342 
z"/>
<path fill="#FFFCFB" opacity="1.000000" stroke="none" 
	d="
M173.531342,1.000000 
	C167.359192,1.941307 160.740982,3.104482 154.073441,3.783186 
	C132.260971,6.003531 110.461853,8.541740 88.592300,9.926856 
	C79.263084,10.517727 69.752724,8.740007 60.359337,7.719547 
	C43.029533,5.836906 25.725317,3.718746 8.205219,1.349358 
	C63.020893,1.000000 118.041786,1.000000 173.531342,1.000000 
z"/>
</svg>